<svg xmlns="http://www.w3.org/2000/svg" viewBox="0 0 576 512"><!--!Font Awesome Free 6.7.2 by @fontawesome - https://fontawesome.com License - https://fontawesome.com/license/free Copyright 2025 Fonticons, Inc.--><path d="M336 448H16c-8.8 0-16 7.2-16 16v32c0 8.8 7.2 16 16 16h320c8.8 0 16-7.2 16-16v-32c0-8.8-7.2-16-16-16zm208-320V80c0-8.8-7.2-16-16-16s-16 7.2-16 16v48h-32V80c0-8.8-7.2-16-16-16s-16 7.2-16 16v48h-16c-8.8 0-16 7.2-16 16v32c0 35.8 23.6 65.7 56 75.9v118.5c0 14-9.5 26.9-23.3 29.2C431.2 402.5 416 389 416 372v-28c0-48.6-39.4-88-88-88h-8V64c0-35.4-28.7-64-64-64H96C60.7 0 32 28.7 32 64v352h288V304h8c22.1 0 40 17.9 40 40v24.6c0 39.7 28.9 75.2 68.4 79C481.7 452.1 520 416.4 520 372V251.9c32.4-10.2 56-40.2 56-75.9v-32c0-8.8-7.2-16-16-16h-16zm-283.9 47.8l-93.7 139c-2.2 3.3-6.2 5.2-10.4 5.2-7.7 0-13.5-6.3-11.7-12.9L167.4 224H108c-7.3 0-12.9-5.6-11.9-11.9l16-107C112.9 99.9 118 96 124 96h68c7.9 0 13.6 6.5 11.6 13.2L192 160h57.7c9.2 0 15 8.8 10.4 15.8z"/></svg>